<?xml version="1.0" encoding="utf-8"?>
<svg version="1.1" id="Layer_1" xmlns="http://www.w3.org/2000/svg" xmlns:xlink="http://www.w3.org/1999/xlink" x="0px" y="0px"
	 width="60px" height="60px" viewBox="15 15 90 90">
<g>
	<g>
		<path fill="#5c616c" d="M69.4459534,21.1325397c-19.3165054-4.7348576-39.4722824,5.7618542-46.6989708,24.2907887
			c-1.9094601,4.8957748-2.7753868,9.9014282-2.7462769,14.8019638c0.0023193,0.3904533,0.4454651,0.6316795,0.7715111,0.4168472
			c2.0852394-1.37397,4.5756741-2.1812286,7.2598324-2.1812286c0.0728397,0,0.1432381,0.0097084,0.2158356,0.0108681
			c-0.0109291-1.1667557,0.1520309-2.3542061,0.5178204-3.5281067c1.8881187-6.0593567,8.3312492-9.4409981,14.3911285-7.5530396
			c0.5981712,0.1863289,1.161911,0.4288254,1.7053757,0.6991615c4.3342323-8.7237091,14.4595718-13.2738762,24.0581703-10.2835121
			c10.002739,3.1163101,15.8486786,13.2965202,13.767128,23.3451691c1.0164108,0.0876694,2.0383835,0.2768669,3.0524139,0.5928078
			c5.9908676,1.866478,9.8874435,7.2930412,10.0895233,13.2280693c0.0221405,0.6504059,0.906395,0.8223343,1.1546631,0.2207718
			c0.4427795-1.072876,0.8427429-2.1738663,1.1947174-3.3034286
			C104.9992828,50.0009651,92.0587006,26.6753693,69.4459534,21.1325397z"/>
		<path fill="#5c616c" d="M80.7593384,72.9358444c-1.4105911-0.0608063-2.7626953,0.1712494-4.0000076,0.6322556
			c0.0205154-0.2284546,0.0549545-0.4525146,0.0653915-0.68396c0.3769608-8.4044724-6.1312561-15.5233154-14.5365028-15.9001884
			c-8.1754951-0.3666115-15.1155624,5.7860336-15.8367043,13.8563652c-1.6025543-0.9739532-3.4645424-1.5719528-5.4701309-1.6618805
			c-6.3698654-0.2855988-11.7652016,4.6461411-12.0508862,11.0154572c-0.1580143,3.5231552,1.2552032,6.775795,3.6757946,8.975296
			c0.5014,0.4555664,0.9715958,0.8619308,0.9715958,0.8619308c4.1147957,3.5696793,8.9821167,6.4184036,14.5192871,8.1435318
			c12.9189911,4.0248108,26.2826538,1.1482544,36.2443619-6.51828c1.6910858-1.2917938,3.037941-2.4636765,3.8799133-3.5443497
			c1.1484756-1.474144,1.8641205-3.2845688,1.9563751-5.2637939C90.4220505,77.6087875,86.2052917,73.1708374,80.7593384,72.9358444
			z"/>
	</g>
</g>
</svg>
